# xmcd
#
# Track frame offsets:
#	150
#	13308
#	27920
#	38418
#	57465
#	78678
#	90168
#	106371
#	126325
#	142129
#	153666
#	167111
#	179175
#	199228
#	211189
#
# Disc length: 3037 seconds
#
# Revision: 0
# Processed by: cddbd v1.4PL0 Copyright (c) Steve Scherf et al.
# Submitted via: dBpowerAMP V4.0
#
DISCID=d80bdb0f
DTITLE=John Scooch Cugno - Nothins Easy
DYEAR=1900
DGENRE=Blues
TTITLE0=You Got Me
TTITLE1=Cadillac OLove
TTITLE2=Homework
TTITLE3=Little Brother
TTITLE4=20 Years To Go
TTITLE5=Lazy Dogs
TTITLE6=Guadalajara
TTITLE7=As The Years Go Passing By
TTITLE8=Walkin Blues
TTITLE9=House O Blue Lights
TTITLE10=To Much Spliff
TTITLE11=Guitar Player
TTITLE12=My New England
TTITLE13=Catfish Blues
TTITLE14=Born To Sing The Blues
EXTD=
EXTT0=
EXTT1=
EXTT2=
EXTT3=
EXTT4=
EXTT5=
EXTT6=
EXTT7=
EXTT8=
EXTT9=
EXTT10=
EXTT11=
EXTT12=
EXTT13=
EXTT14=
PLAYORDER=
